<?xml version="1.0" encoding="UTF-8"?>
<svg id="Layer_2" data-name="Layer 2" xmlns="http://www.w3.org/2000/svg" viewBox="0 0 3208.08 2711.16">
  <defs>
    <style>
      .cls-1 {
        fill: #606c38;
        stroke-width: 0px;
      }
    </style>
  </defs>
  <g>
    <path class="cls-1" d="m860.22,2557.62c-88.16,0-177.59-15.37-263.83-46.08-175.22-62.39-325.15-181.3-433.57-343.87C-142.06,1710.55,72.99,689.9,82.29,646.68c6.79-31.53,36.63-52.59,68.56-48.57,22.11,2.8,546.24,71.47,954.04,312.51,10.68,6.31,61.66,34.92,83.43,47.14l11.16,6.27c29.91,16.82,40.52,54.7,23.7,84.61-16.82,29.91-54.71,40.52-84.61,23.7l-11.06-6.21c-38.42-21.56-75.41-42.36-85.85-48.53-309.99-183.23-703.52-262.8-849.02-287.35-40.31,219.86-163.89,1012.45,73.56,1368.48,185.6,278.3,513.11,401.71,796.41,300.14,32.31-11.6,67.88,5.21,79.46,37.52,11.58,32.3-5.21,67.88-37.52,79.46-77.72,27.87-160.46,41.78-244.33,41.78Z"/>
    <g>
      <polyline class="cls-1" points="1429.77 2653.96 1335.1 2511.4 433.02 1109.87"/>
      <path class="cls-1" d="m1477.79,2625.89c-42.31-63.71-84.82-127.25-126.21-191.55-65.3-101.45-130.6-202.9-195.9-304.35-93.89-145.87-187.78-291.74-281.66-437.61-86.71-134.72-173.42-269.44-260.13-404.15-43.62-67.78-86.2-136.38-130.93-203.43-.66-.98-1.28-1.99-1.92-2.98-15.73-24.43-50.09-36.71-76.08-19.95-24.43,15.75-36.79,49.92-19.95,76.08,35.94,55.84,71.89,111.69,107.83,167.53,83.68,130.01,167.36,260.02,251.04,390.03,94.91,147.46,189.83,294.92,284.74,442.39,70.46,109.48,140.93,218.96,211.39,328.43,41.41,64.34,83.57,128.1,125.91,191.85,5.28,7.95,10.56,15.9,15.84,23.86,16.07,24.2,49.84,36.87,76.08,19.95,24.13-15.56,37.16-50.16,19.95-76.08h0Z"/>
    </g>
    <path class="cls-1" d="m770.94,1585.01c88.16-95.84,122.79-235.17,94.17-361.74-6.42-28.4-40.75-47.79-68.4-38.84-29.76,9.63-45.72,37.97-38.84,68.4,1.41,6.23,2.52,12.48,3.76,18.74.99,6.49,1.02,6.34.07-.43.39,3.22.73,6.45,1.01,9.69,1.18,13.11,1.56,26.29,1.21,39.45-.31,11.69-1.17,23.39-2.63,34.99,1.62-12.86-1.54,7.98-1.97,10.19-1.29,6.65-2.75,13.26-4.4,19.82-3.3,13.15-7.31,26.13-12.06,38.83-.33.89-6.73,16-2.03,5.53-2.77,6.16-5.61,12.28-8.69,18.29-6.12,11.95-12.96,23.54-20.52,34.63-1.19,1.75-13.57,17.64-6.23,8.8-4.25,5.12-8.59,10.12-13.09,15.01-19.69,21.41-22.76,57.75,0,78.64,21.43,19.68,57.61,22.87,78.64,0h0Z"/>
    <path class="cls-1" d="m691.34,1508.48c-13.06,4.28-26.3,7.8-39.82,10.31-3.39.63-6.79,1.2-10.2,1.72,6.23-.8,6.01-.81-.65-.04-5.19.39-10.36.93-15.56,1.21-13.92.75-27.89.63-41.8-.29-6.97-.46-13.95-1.08-20.87-2,11.75,1.55-6.25-1.26-8.52-1.7-12.83-2.44-25.54-5.55-38.04-9.34-6.62-2-13.19-4.19-19.69-6.57-3.23-1.18-6.45-2.41-9.65-3.68,4.56,2.01,5.04,2.22,1.44.63-23.8-10.47-46.17-23.65-66.87-39.36-23.27-17.66-63.2-4.43-76.08,19.95-15.49,29.32-4.89,57.24,19.95,76.08,97.83,74.24,239.17,98.54,355.94,60.32,27.6-9.03,48.39-38.88,38.84-68.4-8.92-27.55-38.8-48.53-68.4-38.84h0Z"/>
    <path class="cls-1" d="m1004.74,1989.29c-33.78,14.2-69.02,23.76-105.25,29.17,11.75-1.75-5.21.48-6.12.57-4.37.44-8.76.8-13.14,1.12-9.67.69-19.35,1.1-29.04,1.23-18.53.24-37.07-.58-55.51-2.37-4.39-.43-8.77-.92-13.15-1.44,8.2.98.46.03-3.52-.61-9.54-1.52-19.03-3.31-28.47-5.36-17.87-3.89-35.52-8.74-52.86-14.56-8.98-3.01-17.84-6.31-26.65-9.8-4.06-1.61-6.06-2.76-.88-.36-4.62-2.14-9.28-4.18-13.87-6.39-16.57-7.97-32.55-17.03-48-26.99-24.5-15.79-62.47-5.81-76.08,19.95-14.59,27.62-6.2,59.23,19.95,76.08,138.19,89.04,329.66,111.1,482.15,47,26.71-11.23,48.92-37.27,38.84-68.4-8.3-25.64-39.69-50.91-68.4-38.84h0Z"/>
  </g>
  <path class="cls-1" d="m2194.32,2443.59c-113.99,0-230.71-19.99-346.64-59.9-32.45-11.17-49.69-46.53-38.52-78.98,11.17-32.45,46.51-49.68,78.98-38.52,414.43,142.68,800.42-2.09,1032.52-387.23,315.59-516.52,86.3-1483.24,20.36-1729.04-249.58,69.85-1226.2,368.84-1498.41,838.19-212.73,366.79-163.02,820.31,118.19,1078.37,25.28,23.2,26.97,62.51,3.77,87.79-23.2,25.28-62.51,26.96-87.79,3.77-154.63-141.9-255.23-341.18-283.27-561.13-29.2-228.99,19.77-461.07,141.61-671.14,143.13-246.79,462.94-475.56,950.54-679.96C2643.69,95.73,2956.02,16.93,2969.15,13.65c32.12-8.04,64.87,10.52,74.51,42.18,3.84,12.62,94.59,313.43,139.66,696.04,61.3,520.44,8.67,921.34-156.44,1191.57-135.16,224.29-322.15,381.28-540.56,453.67-93.55,31.01-191.72,46.49-292,46.49Z"/>
  <g>
    <line class="cls-1" x1="1432.19" y1="2652.83" x2="2643.13" y2="641.12"/>
    <path class="cls-1" d="m1483.03,2682.55c10.83-17.99,21.66-35.98,32.49-53.97,29.28-48.65,58.56-97.29,87.85-145.94,43.51-72.28,87.02-144.56,130.53-216.85,52.83-87.76,105.66-175.53,158.49-263.29,58.15-96.61,116.31-193.22,174.46-289.82,58.71-97.53,117.41-195.05,176.12-292.58,54.48-90.5,108.95-181,163.43-271.5,46.27-76.86,92.54-153.73,138.8-230.59,33.12-55.03,66.25-110.06,99.37-165.08,15.78-26.21,32.19-52.14,47.37-78.7.65-1.14,1.36-2.25,2.03-3.38,15.9-26.42,6.74-65.84-21.12-80.56-28.53-15.07-63.58-7.08-80.56,21.12-10.83,17.99-21.66,35.98-32.49,53.97-29.28,48.65-58.56,97.29-87.85,145.94-43.51,72.28-87.02,144.56-130.53,216.85-52.83,87.76-105.66,175.53-158.49,263.29-58.15,96.61-116.31,193.22-174.46,289.82-58.71,97.53-117.41,195.05-176.12,292.58-54.48,90.5-108.95,181-163.43,271.5-46.27,76.86-92.54,153.73-138.8,230.59-33.12,55.03-66.25,110.06-99.37,165.08-15.78,26.21-32.19,52.14-47.38,78.7-.65,1.14-1.36,2.25-2.03,3.38-15.9,26.41-6.74,65.84,21.12,80.56,28.53,15.07,63.58,7.08,80.56-21.12h0Z"/>
  </g>
  <g>
    <path class="cls-1" d="m2322.6,1210.06c129.33,39.38,285.05,2.71,384.8-79.23"/>
    <path class="cls-1" d="m2307.82,1263.68c150.1,44.47,318.56,3.94,438.9-93.53,22.7-18.39,20.55-59.78,0-78.64-24.11-22.13-54.42-19.62-78.64,0-7.97,6.46,2.84-1.74-2.33,1.92-3.38,2.39-6.67,4.89-10.07,7.26-6.17,4.29-12.48,8.39-18.89,12.32-13.02,7.98-26.49,15.22-40.31,21.74-3.88,1.83-7.78,3.61-11.72,5.33,7.31-3.19.03-.07-3.46,1.29-7.27,2.83-14.61,5.47-22.02,7.92-15.74,5.2-31.76,9.55-47.97,13.02-7.71,1.65-15.46,3.01-23.22,4.36-4.56.79-6.64.98-.81.24-4.34.55-8.69,1.02-13.04,1.43-16.5,1.57-33.1,2.24-49.67,1.89-7.81-.17-15.62-.55-23.41-1.16-4.32-.34-8.62-.77-12.93-1.22-4.86-.5-6.29-1.05-.63-.05-16.98-3-33.66-6.45-50.21-11.36-27.88-8.26-61.82,9.95-68.4,38.84-6.8,29.87,8.98,59.56,38.84,68.4h0Z"/>
  </g>
  <g>
    <path class="cls-1" d="m2290.49,1190.73c-95.33-95.86-135.81-250.63-110.1-377.13"/>
    <path class="cls-1" d="m2329.81,1151.41c-5.78-5.9-11.43-11.92-16.83-18.17-2.7-3.13-5.25-6.41-7.94-9.55-5.86-6.82,7.2,10.19-1.92-2.57-9.23-12.92-17.88-26.17-25.65-40.03-3.69-6.59-7.21-13.27-10.55-20.05-2.23-4.53-4.33-9.11-6.44-13.7-1.9-4.14-2.46-5.89-.36-.65-6.27-15.67-11.85-31.56-16.45-47.81-4.35-15.37-7.89-30.96-10.62-46.7-.71-4.12-1.36-8.25-1.98-12.39,1.22,8.13.32,2.2-.19-2.59-.78-7.42-1.39-14.86-1.8-22.31-.9-16.34-.89-32.73.12-49.06.45-7.24,1.28-14.43,1.94-21.65.63-6.88-1.72,8.97.32-1.8.89-4.66,1.64-9.34,2.56-13.99,5.59-28.46-8.06-61.39-38.84-68.4-27.56-6.28-62.41,8.32-68.4,38.84-29.88,152.13,15.09,319.72,124.4,431.23,20.4,20.81,58.46,21.98,78.64,0,20.55-22.38,21.76-56.44,0-78.64h0Z"/>
  </g>
  <g>
    <path class="cls-1" d="m1935.58,1866.28c179.55,54.67,395.73,3.76,534.21-109.99"/>
    <path class="cls-1" d="m1920.79,1919.9c199.99,59.71,427.86,6.18,588.31-124.29,22.67-18.43,20.58-59.75,0-78.64-24.08-22.1-54.46-19.66-78.64,0-2.55,2.09-5.11,4.16-7.7,6.2,4.07-3.12,4.54-3.49,1.41-1.13-4.74,3.38-9.38,6.92-14.16,10.25-8.27,5.77-16.69,11.31-25.26,16.62-18.87,11.68-38.43,22.23-58.51,31.68-6.25,2.94-12.55,5.8-18.9,8.51,8.89-3.78-3.78,1.43-5.99,2.3-9.75,3.8-19.59,7.37-29.51,10.69-22.48,7.51-45.37,13.77-68.54,18.73-11.19,2.4-22.45,4.51-33.75,6.29-.87.14-17.86,2.31-6.15.97-6.12.7-12.24,1.42-18.38,1.99-22.73,2.13-45.57,2.99-68.39,2.5-11.35-.25-22.7-.82-34.02-1.75-5.21-.43-10.4-1.04-15.6-1.51-6.66-.82-6.91-.81-.74.03-2.58-.36-5.15-.74-7.73-1.15-23.08-3.6-45.81-8.85-68.18-15.53-27.87-8.32-61.83,9.99-68.4,38.84-6.81,29.92,9,59.5,38.84,68.4h0Z"/>
  </g>
  <g>
    <path class="cls-1" d="m1890.99,1839.44c-132.35-133.08-188.55-347.94-152.85-523.56"/>
    <path class="cls-1" d="m1930.31,1800.12c-8.17-8.3-16.11-16.81-23.72-25.64-3.81-4.43-7.51-8.94-11.19-13.48-2.42-3.06-2.1-2.6.97,1.38-2.03-2.66-4.03-5.34-6.01-8.04-12.91-17.64-24.74-36.07-35.47-55.11-5.81-10.31-11.3-20.81-16.48-31.45-2.6-5.33-5.1-10.71-7.54-16.12-1.05-2.32-2.08-4.64-3.09-6.98,2.27,5.48,2.16,5.22-.31-.8-8.44-21.35-16.04-42.95-22.3-65.05-6.23-22-11.28-44.33-15.11-66.87-.85-4.98-1.61-9.98-2.36-14.98,1.94,12.84-.91-7.98-1.14-10.21-1.13-10.79-1.97-21.62-2.53-32.46-1.14-22.22-1.07-44.5.33-66.7.71-11.33,1.85-22.61,3.19-33.88-1.58,13.27.51-2.66.77-4.27,1.03-6.29,2.21-12.54,3.45-18.79,5.64-28.45-8.09-61.4-38.84-68.4-27.6-6.29-62.35,8.33-68.4,38.84-40.26,203.03,21.03,429.19,167.15,577.66,20.44,20.77,58.44,22.01,78.64,0,20.51-22.34,21.81-56.48,0-78.64h0Z"/>
  </g>
</svg>